<!-- icon666.com - MILLIONS vector ICONS FREE --><svg id="Layer_1" enable-background="new 0 0 100 100" viewBox="0 0 100 100" xmlns="http://www.w3.org/2000/svg"><g><g><path d="m47.4 25.8c-.2-.2-16-16.3-27.1-16.3v-1.9c12 0 27.8 16.2 28.5 16.9z"></path></g><g><path d="m41.8 35.5c-1.6 0-3.6-.1-4.7-.8-.4-.2-1.2-.7-2.2-1.5-3.2-2.1-10.7-7.2-12.7-7.2v-1.9c2.4 0 8.1 3.7 13.8 7.5 1 .7 1.8 1.2 2.1 1.4 1 .6 4.1.6 5.8.4l.2 1.9c-.2.1-1.2.2-2.3.2z"></path></g><g><path d="m20 55.4-.6-1.8c.1 0 11.3-3.7 13-9.5 1.6-5.7 8.4-5.9 11.8-5.3l-.4 1.9.2-.9-.2.9c-.3-.1-8.1-1.6-9.6 3.9-1.9 6.8-13.7 10.7-14.2 10.8z"></path></g><g><path d="m28.8 92.4-1.3-1.4c.1-.1 9-8.8 9.2-18 .1-4.6 1-7.6 2.8-9 1.3-1 2.5-.8 2.7-.8l-.2.9-.2.9s-.6-.1-1.2.4c-.7.6-1.9 2.4-2 7.5-.2 10.2-9.4 19.1-9.8 19.5z"></path></g><g><path d="m58.7 50.4c0-10.6-8.8-12.5-8.8-12.5s-8.8 1.9-8.8 12.5.6 26.1 8.8 26.1c8.1 0 8.8-15.4 8.8-26.1z"></path></g><g><path d="m49.9 29.3s-5.9 2-5.9 4.3v8.1c2.6-3.1 5.9-3.8 5.9-3.8s3.4.7 5.9 3.8c0-2.8 0-6.7 0-8.1 0-2.3-5.9-4.3-5.9-4.3z"></path></g><g><path d="m49.9 24.2s-4 .8-3.5 6.7c1.6-1 3.5-1.6 3.5-1.6s1.9.6 3.5 1.6c.5-5.9-3.5-6.7-3.5-6.7z"></path></g><g><path d="m49.9 77.5c-9.7 0-9.7-19-9.7-27 0-11.2 9.1-13.4 9.5-13.5h.4c.4.1 9.5 2.2 9.5 13.4 0 8.1 0 27.1-9.7 27.1zm0-38.6c-1.3.4-7.8 2.6-7.8 11.6 0 10.8.8 25.2 7.8 25.2s7.8-14.4 7.8-25.2c0-9.1-6.5-11.3-7.8-11.6z"></path></g><g><path d="m55.8 42.6c-.3 0-.5-.1-.7-.3-2-2.4-4.5-3.2-5.2-3.4-.7.2-3.2 1-5.2 3.4-.3.3-.7.4-1 .3-.4-.1-.6-.5-.6-.9v-8.1c0-3.1 6.6-5.2 6.6-5.2h.4c.1 0 6.6 2.1 6.6 5.2v8.1c0 .4-.2.8-.6.9-.1 0-.2 0-.3 0zm-5.9-12.3c-2.4.9-5 2.4-5 3.3v5.8c2.2-1.8 4.4-2.4 4.8-2.5h.4c.3.1 2.5.6 4.8 2.5v-5.8c0-.9-2.6-2.4-5-3.3z"></path></g><g><path d="m46.4 31.9c-.2 0-.4-.1-.6-.2-.2-.2-.4-.4-.4-.7-.5-6 3.4-7.7 4.4-7.8h.3c.2 0 4.8 1.1 4.2 7.8 0 .3-.2.6-.5.8-.3.1-.6.1-.9 0-1.2-.7-2.5-1.2-3-1.4-.6.2-1.9.7-3 1.4-.1.1-.2.1-.3.1s-.1 0-.2 0zm3.5-3.5h.2c.1 0 1.2.4 2.4 1-.2-3.1-2-4-2.6-4.2-.6.2-2.4 1.1-2.6 4.2 1.2-.5 2.1-.9 2.3-.9.1-.1.2-.1.3-.1z"></path></g><g><path d="m52.4 25.8-1.4-1.3c.7-.7 16.5-16.9 28.5-16.9v1.9c-11.2 0-27 16.2-27.1 16.3z"></path></g><g><path d="m58 35.5c-1.2 0-2.1-.1-2.3-.1l.2-1.9c1.7.2 4.8.2 5.8-.4.3-.2 1.1-.7 2-1.3 5.5-3.7 11.6-7.6 14-7.6v1.9c-2 0-10 5.3-13 7.3-1 .7-1.7 1.2-2.1 1.4-1 .6-3 .7-4.6.7z"></path></g><g><path d="m80 55.4c-.5-.2-12.5-4-14.4-10.8-1.5-5.5-9.3-4-9.6-3.9l-.4-1.9c3.4-.7 10.2-.5 11.8 5.3s13 9.5 13.2 9.5z"></path></g><g><path d="m71 92.4c-.4-.4-9.6-9.3-9.8-19.3-.1-5.1-1.3-6.9-2-7.5-.6-.5-1.1-.5-1.2-.4l-.4-1.9c.1 0 1.4-.2 2.7.8 1.8 1.4 2.7 4.5 2.8 9 .1 9.2 9.1 17.9 9.2 18z"></path></g></g></svg>